<svg width="44" height="44" viewBox="0 0 44 44" fill="none" xmlns="http://www.w3.org/2000/svg">
<path d="M2 2H5.93116C7.68606 2 8.56352 2 9.22411 2.45759C9.8847 2.91519 10.1622 3.71521 10.7171 5.31526L12.0897 9.27273M37.314 33.5152H13.4793C13.1106 33.5152 12.9262 33.5152 12.7863 33.5001C11.3042 33.3406 10.2888 31.9867 10.6001 30.585C10.6295 30.4526 10.6878 30.2845 10.8044 29.9483C10.9339 29.575 10.9986 29.3884 11.0701 29.2237C11.8023 27.5373 13.4588 26.3899 15.3549 26.2555C15.5401 26.2424 15.7449 26.2424 16.1543 26.2424H29.7467M21.2653 26.2424H28.9363C31.7932 26.2424 33.2217 26.2424 34.3961 25.5874C35.5704 24.9325 36.2792 23.7405 37.6966 21.3565L38.4117 20.1537C41.2889 15.3146 42.7275 12.8951 41.6339 11.0839C40.5403 9.27273 37.6407 9.27273 31.8415 9.27273H18.5209C13.3374 9.27273 10.7456 9.27273 9.62416 10.9073C8.50267 12.5419 9.52361 14.8314 11.5655 19.4103L11.9913 20.3653C13.2624 23.2157 13.898 24.6409 15.1616 25.4417C16.4251 26.2424 18.0385 26.2424 21.2653 26.2424ZM38.5752 39.5758C38.5752 40.9146 37.4459 42 36.0528 42C34.6597 42 33.5303 40.9146 33.5303 39.5758C33.5303 38.2369 34.6597 37.1515 36.0528 37.1515C37.4459 37.1515 38.5752 38.2369 38.5752 39.5758ZM18.3958 39.5758C18.3958 40.9146 17.2665 42 15.8734 42C14.4803 42 13.3509 40.9146 13.3509 39.5758C13.3509 38.2369 14.4803 37.1515 15.8734 37.1515C17.2665 37.1515 18.3958 38.2369 18.3958 39.5758Z" stroke="#17313A" stroke-width="3" stroke-linecap="round"/>
</svg>
