<svg width="80" height="80" viewBox="0 0 80 80" fill="none" xmlns="http://www.w3.org/2000/svg">
<path d="M40 67L10.7977 34.1474C10.4091 33.7102 10.2147 33.4916 10.1635 33.2192C10.1123 32.9469 10.2138 32.6726 10.417 32.1241L16.5331 15.6107C17.0007 14.3482 17.2345 13.7169 17.7495 13.3585C18.2645 13 18.9377 13 20.2841 13H59.7159C61.0623 13 61.7355 13 62.2505 13.3585C62.7655 13.7169 62.9993 14.3482 63.4669 15.6107L69.583 32.1241C69.7862 32.6726 69.8877 32.9469 69.8365 33.2192C69.7853 33.4916 69.5909 33.7102 69.2023 34.1474L40 67ZM40 67L53.125 29.875M40 67L26.875 29.875M68.125 33.25L53.125 29.875M53.125 29.875L47.5 13M53.125 29.875H26.875M32.5 13L26.875 29.875M26.875 29.875L11.875 33.25" stroke="#FAFAFA" stroke-width="2" stroke-linecap="round"/>
</svg>
