<svg width="80" height="80" viewBox="0 0 80 80" fill="none" xmlns="http://www.w3.org/2000/svg">
<path d="M39.9999 70V43.3333M39.9999 70L14.2733 53.9208C13.8137 53.6336 13.584 53.49 13.4586 53.2639C13.3333 53.0377 13.3333 52.7667 13.3333 52.2248V26.6667M39.9999 70L53.3333 61.6667L65.7266 53.9208C66.1861 53.6336 66.4159 53.49 66.5412 53.2639C66.6666 53.0377 66.6666 52.7667 66.6666 52.2248V26.6667M39.9999 43.3333L13.3333 26.6667M39.9999 43.3333L66.6666 26.6667M13.3333 26.6667L38.9399 10.6625C39.4554 10.3403 39.7131 10.1792 39.9999 10.1792C40.2867 10.1792 40.5444 10.3403 41.0599 10.6625L66.6666 26.6667" stroke="#FAFAFA" stroke-width="2" stroke-linejoin="round"/>
<path d="M52.3334 48.333C52.3334 48.8853 52.7811 49.333 53.3334 49.333C53.8857 49.333 54.3334 48.8853 54.3334 48.333H52.3334ZM52.3934 34.4122L52.9234 33.5642L52.3934 34.4122ZM53.2081 35.0692L52.3334 35.5539L53.2081 35.0692ZM26.1367 19.181L51.8634 35.2602L52.9234 33.5642L27.1967 17.485L26.1367 19.181ZM54.3334 48.333V36.1082H52.3334V48.333H54.3334ZM51.8634 35.2602C52.1091 35.4137 52.2338 35.4929 52.3177 35.5572C52.3847 35.6085 52.3604 35.6026 52.3334 35.5539L54.0827 34.5844C53.9304 34.3095 53.7285 34.1187 53.5344 33.9699C53.3572 33.8341 53.1372 33.6978 52.9234 33.5642L51.8634 35.2602ZM54.3334 36.1082C54.3334 35.856 54.3345 35.5973 54.3132 35.375C54.2899 35.1315 54.235 34.8593 54.0827 34.5844L52.3334 35.5539C52.3064 35.5052 52.3143 35.4815 52.3223 35.5655C52.3324 35.6707 52.3334 35.8184 52.3334 36.1082H54.3334Z" fill="#FAFAFA"/>
</svg>
