<svg width="39" height="39" viewBox="0 0 39 39" fill="none" xmlns="http://www.w3.org/2000/svg">
<path d="M11.2978 0.134879C9.24583 0.231693 7.84454 0.559162 6.61952 1.04053C5.35168 1.53463 4.27709 2.19767 3.20789 3.27072C2.1387 4.34377 1.48029 5.41913 0.989665 6.6889C0.514854 7.91662 0.19317 9.31907 0.102528 11.3722C0.0118858 13.4254 -0.00817125 14.0853 0.00185726 19.3225C0.0118858 24.5597 0.0350285 25.2162 0.134542 27.2736C0.232513 29.3252 0.558825 30.7261 1.04019 31.9515C1.53506 33.2193 2.19733 34.2935 3.27077 35.3631C4.3442 36.4327 5.4188 37.0896 6.69164 37.581C7.91821 38.055 9.32104 38.3782 11.3738 38.4681C13.4266 38.558 14.0873 38.5788 19.3229 38.5688C24.5586 38.5587 25.2178 38.5356 27.2748 38.438C29.3318 38.3404 30.7254 38.0118 31.9511 37.5327C33.219 37.0367 34.294 36.3756 35.3628 35.3018C36.4316 34.228 37.0896 33.1518 37.5798 31.8813C38.055 30.6547 38.3779 29.2519 38.467 27.2007C38.5568 25.1421 38.5781 24.4849 38.568 19.2484C38.558 14.012 38.5345 13.3555 38.4369 11.2989C38.3393 9.24231 38.0126 7.84565 37.5316 6.61947C37.036 5.35163 36.3745 4.2782 35.3014 3.20785C34.2284 2.1375 33.1515 1.47986 31.8813 0.990774C30.654 0.515962 29.2519 0.19235 27.1992 0.103636C25.1464 0.0149224 24.4857 -0.00783456 19.2481 0.00219395C14.0105 0.0122225 13.3548 0.0345938 11.2978 0.134879ZM11.5231 34.9986C9.64273 34.9168 8.62175 34.6044 7.94135 34.3429C7.04033 33.9958 6.3985 33.5761 5.72042 32.9046C5.04234 32.2331 4.62577 31.5889 4.274 30.6898C4.00979 30.0094 3.69158 28.9896 3.60364 27.1093C3.50798 25.0769 3.48792 24.4667 3.47674 19.3179C3.46555 14.169 3.48522 13.5596 3.57432 11.5265C3.65455 9.64769 3.9689 8.62556 4.23003 7.94555C4.57717 7.04337 4.99528 6.4027 5.66835 5.725C6.34142 5.04731 6.98363 4.62997 7.88349 4.2782C8.56312 4.01283 9.58294 3.69731 11.4625 3.60783C13.4964 3.5114 14.1058 3.49212 19.2539 3.48093C24.402 3.46974 25.013 3.48903 27.0476 3.57852C28.9264 3.66029 29.9489 3.97156 30.6282 4.23423C31.5296 4.58137 32.171 4.99832 32.8487 5.67255C33.5264 6.34677 33.9441 6.98667 34.2959 7.88846C34.5616 8.56616 34.8772 9.58559 34.9659 11.4663C35.0627 13.5002 35.0847 14.11 35.0939 19.2577C35.1032 24.4054 35.0851 25.0168 34.996 27.0491C34.9138 28.9294 34.6021 29.9508 34.3402 30.632C33.9931 31.5326 33.5746 32.1748 32.9012 32.8521C32.2277 33.5294 31.5863 33.9468 30.686 34.2985C30.0072 34.5635 28.9862 34.8798 27.1081 34.9693C25.0743 35.065 24.4649 35.085 19.3148 35.0962C14.1648 35.1074 13.5573 35.0866 11.5235 34.9986M27.2451 8.9781C27.2458 9.43585 27.3823 9.88309 27.6373 10.2633C27.8923 10.6434 28.2542 10.9395 28.6775 11.1139C29.1007 11.2883 29.5661 11.3333 30.0149 11.2432C30.4637 11.1531 30.8757 10.9319 31.1988 10.6077C31.5219 10.2834 31.7415 9.87059 31.83 9.42147C31.9184 8.97235 31.8717 8.50708 31.6957 8.08451C31.5198 7.66194 31.2224 7.30104 30.8413 7.04748C30.4602 6.79391 30.0125 6.65905 29.5547 6.65997C28.9411 6.66119 28.353 6.90609 27.9199 7.3408C27.4868 7.77551 27.244 8.36445 27.2451 8.9781ZM9.38276 19.3048C9.39356 24.7742 13.8354 29.1979 19.3037 29.1875C24.7719 29.1771 29.1987 24.7356 29.1883 19.2662C29.1779 13.7968 24.7349 9.37191 19.2659 9.38271C13.7968 9.39351 9.37234 13.8361 9.38276 19.3048ZM12.8565 19.2978C12.854 18.0264 13.2285 16.7827 13.9328 15.7241C14.6371 14.6655 15.6395 13.8396 16.8132 13.3507C17.987 12.8618 19.2793 12.7319 20.5268 12.9775C21.7743 13.2231 22.921 13.8331 23.8219 14.7304C24.7227 15.6276 25.3372 16.7719 25.5878 18.0184C25.8383 19.265 25.7135 20.5578 25.2293 21.7335C24.7451 22.9091 23.9231 23.9148 22.8673 24.6233C21.8115 25.3317 20.5693 25.7112 19.2979 25.7138C18.4536 25.7155 17.6173 25.551 16.8366 25.2295C16.056 24.908 15.3463 24.4359 14.7482 23.8401C14.15 23.2443 13.6751 22.5365 13.3505 21.7571C13.0259 20.9777 12.858 20.1421 12.8565 19.2978Z" fill="#2B2B2B"/>
</svg>
