<svg width="80" height="80" viewBox="0 0 80 80" fill="none" xmlns="http://www.w3.org/2000/svg">
<path d="M13.3335 34C13.3335 32.1144 13.3335 31.1716 13.9193 30.5858C14.5051 30 15.4479 30 17.3335 30H62.6668C64.5524 30 65.4953 30 66.081 30.5858C66.6668 31.1716 66.6668 32.1144 66.6668 34V64C66.6668 66.8284 66.6668 68.2426 65.7881 69.1213C64.9095 70 63.4953 70 60.6668 70H19.3335C16.5051 70 15.0909 70 14.2122 69.1213C13.3335 68.2426 13.3335 66.8284 13.3335 64V34Z" stroke="#FAFAFA" stroke-width="2"/>
<path d="M53.3337 26.6667V23.3333C53.3337 20.2334 53.3337 18.6835 52.9929 17.4118C52.0682 13.9609 49.3728 11.2654 45.9219 10.3407C44.6502 10 43.1002 10 40.0003 10V10C36.9004 10 35.3505 10 34.0788 10.3407C30.6279 11.2654 27.9324 13.9609 27.0077 17.4118C26.667 18.6835 26.667 20.2334 26.667 23.3333V26.6667" stroke="#FAFAFA" stroke-width="2" stroke-linecap="round"/>
<circle cx="40.0002" cy="49.9997" r="6.66667" fill="#FAFAFA"/>
</svg>
