<svg width="44" height="44" viewBox="0 0 44 44" fill="none" xmlns="http://www.w3.org/2000/svg">
<path d="M35.3333 36.902C34.5469 34.5394 32.8139 32.4517 30.4032 30.9627C27.9924 29.4738 25.0387 28.6667 22 28.6667C18.9613 28.6667 16.0076 29.4737 13.5969 30.9627C11.1861 32.4517 9.45313 34.5394 8.66667 36.902M28.6667 17.5556C28.6667 21.2375 25.6819 24.2222 22 24.2222C18.3181 24.2222 15.3333 21.2375 15.3333 17.5556C15.3333 13.8737 18.3181 10.8889 22 10.8889C25.6819 10.8889 28.6667 13.8737 28.6667 17.5556ZM42 22C42 33.0457 33.0457 42 22 42C10.9543 42 2 33.0457 2 22C2 10.9543 10.9543 2 22 2C33.0457 2 42 10.9543 42 22Z" stroke="#17313A" stroke-width="3" stroke-linecap="round"/>
</svg>
