<svg width="46" height="33" viewBox="0 0 46 33" fill="none" xmlns="http://www.w3.org/2000/svg">
<path fill-rule="evenodd" clip-rule="evenodd" d="M40.9169 1.38835C42.8867 1.91637 44.4377 3.47217 44.9642 5.4479C45.9209 9.02876 45.9209 16.5 45.9209 16.5C45.9209 16.5 45.9209 23.9712 44.9642 27.5524C44.4377 29.5279 42.8867 31.0836 40.9169 31.6119C37.347 32.5713 23.0315 32.5713 23.0315 32.5713C23.0315 32.5713 8.71606 32.5713 5.146 31.6119C3.17639 31.0836 1.6251 29.5279 1.09869 27.5524C0.14209 23.9712 0.14209 16.5 0.14209 16.5C0.14209 16.5 0.14209 9.02876 1.09869 5.4479C1.6251 3.47217 3.17639 1.91637 5.146 1.38835C8.71606 0.428741 23.0315 0.428741 23.0315 0.428741C23.0315 0.428741 37.347 0.428741 40.9169 1.38835ZM30.3131 16.4992L18.3481 23.2822V9.71561L30.3131 16.4992Z" fill="#2B2B2B"/>
</svg>
